<svg width="138" height="27" viewBox="0 0 138 27" fill="none" xmlns="http://www.w3.org/2000/svg">
<path d="M137.63 10.6593C137.606 10.2297 137.737 9.80592 138 9.46484H134.799C135.319 9.98419 135.169 10.4321 135.169 11.1073V15.1323L130.326 9.46484H127.418C127.937 9.98419 127.794 10.4321 127.794 11.1073V17.5278C127.833 17.9821 127.698 18.4341 127.418 18.7937H130.625C130.106 18.2743 130.255 17.8264 130.255 17.1577V12.9834L135.319 18.8261H138C137.859 18.6553 137.754 18.4583 137.691 18.2465C137.627 18.0348 137.607 17.8125 137.63 17.5927V10.6593Z" fill="#020715"/>
<path d="M125.439 17.5929V10.8803C125.407 10.6439 125.423 10.4036 125.487 10.1738C125.55 9.94392 125.66 9.72934 125.809 9.54297H122.602C122.761 9.72287 122.878 9.9367 122.944 10.1683C123.009 10.4 123.021 10.6434 122.978 10.8803V17.5929C123.008 17.8297 122.99 18.0701 122.926 18.2998C122.861 18.5296 122.751 18.744 122.602 18.9302H125.809C125.525 18.545 125.393 18.069 125.439 17.5929Z" fill="#020715"/>
<path d="M116.642 9.46484H111.352C111.871 9.98419 111.722 10.4321 111.722 11.1073V17.2162C111.803 17.7904 111.671 18.3746 111.352 18.8586H116.642C117.858 18.8134 119.009 18.2988 119.852 17.4229C120.696 16.547 121.168 15.378 121.168 14.1617C121.168 12.9454 120.696 11.7765 119.852 10.9006C119.009 10.0247 117.858 9.51004 116.642 9.46484ZM116.642 16.4696H114.182V11.9253H116.642C117.245 11.9253 117.823 12.1647 118.249 12.5908C118.675 13.0169 118.915 13.5948 118.915 14.1974C118.915 14.8 118.675 15.378 118.249 15.8041C117.823 16.2302 117.245 16.4696 116.642 16.4696Z" fill="#020715"/>
<path d="M107.842 16.171C108.391 15.8489 108.851 15.3933 109.178 14.8463C109.505 14.2993 109.688 13.6787 109.711 13.0419C109.719 12.1166 109.364 11.225 108.724 10.5569C108.084 9.88877 107.208 9.49696 106.284 9.46484H100.025C100.183 9.64753 100.297 9.86281 100.361 10.0952C100.425 10.3276 100.437 10.5712 100.395 10.8087V17.5862C100.439 18.05 100.307 18.5132 100.025 18.8846H103.219C102.97 18.5943 102.839 18.2216 102.849 17.8394V16.6189H105.011L107.024 18.8586H110.231L107.842 16.171ZM106.277 14.2234H102.849V11.776H106.277C106.56 11.8206 106.815 11.9692 106.994 12.1925C107.173 12.4158 107.262 12.6979 107.244 12.9834C107.296 13.264 107.233 13.5535 107.072 13.7883C106.91 14.0232 106.661 14.1843 106.381 14.2364H106.277V14.2234Z" fill="#020715"/>
<path d="M94.5804 9.46484H91.2955C91.4287 9.66364 91.4997 9.8975 91.4997 10.1368C91.4997 10.376 91.4287 10.6099 91.2955 10.8087L87.4004 18.8586H90.536C90.4434 18.7802 90.384 18.6697 90.3695 18.5493C90.3551 18.4289 90.3867 18.3075 90.4581 18.2094L90.7567 17.5602H95.8268L96.1255 18.2094C96.1969 18.508 96.1969 18.7288 96.0476 18.8586H99.1767L94.5804 9.46484ZM91.8928 15.1323L93.2366 12.2953L94.5739 15.1323H91.8928Z" fill="#020715"/>
<path d="M86.006 17.7357V10.731C85.9818 10.3022 86.1157 9.87948 86.3825 9.54297H83.1756C83.6949 10.0623 83.5456 10.5103 83.5456 11.1789V15.2039L78.7027 9.54297H75.8008C76.3201 10.0623 76.1708 10.5103 76.1708 11.1789V17.5929C76.2066 18.0459 76.0749 18.4964 75.8008 18.8588H79.0013C78.4819 18.3395 78.6312 17.8915 78.6312 17.2164V13.12L83.7014 18.9627H86.454C86.243 18.5904 86.0918 18.1874 86.006 17.7682" fill="#020715"/>
<path d="M75.9555 21.4622L76.3256 22.358C74.4059 23.063 72.4025 23.5148 70.366 23.7019L69.7623 8.49787L74.8324 7.84868L69.6909 7.10212L69.6195 5.53757C70.2528 5.40581 70.8211 5.05914 71.2281 4.55631C71.6351 4.05348 71.8557 3.42542 71.8527 2.77853C71.857 2.41518 71.7891 2.0546 71.653 1.71768C71.5169 1.38076 71.3153 1.07419 71.0599 0.815746C70.8045 0.557302 70.5003 0.352121 70.165 0.212093C69.8297 0.0720648 69.47 -2.5379e-05 69.1066 6.70211e-09C68.3786 0.0101107 67.6834 0.304244 67.1691 0.819671C66.6549 1.3351 66.3624 2.03103 66.354 2.75905C66.3616 3.40311 66.5862 4.02579 66.9914 4.52644C67.3967 5.02709 67.9589 5.37647 68.5872 5.5181L68.5158 7.08264L63.3678 7.82921L68.4379 8.4784L67.8407 23.6824C65.8153 23.4321 63.8193 22.9842 61.8811 22.3451L62.2512 21.4492L57.1875 20.9298L61.0826 24.0589L61.4527 23.163L69.1326 26.37L76.806 23.1565L77.176 24.0524L81.0711 20.9233L75.9555 21.4622ZM67.5161 2.75905C67.5161 2.44961 67.6078 2.14712 67.7798 1.88984C67.9517 1.63255 68.196 1.43202 68.4819 1.3136C68.7678 1.19518 69.0824 1.1642 69.3859 1.22457C69.6893 1.28494 69.9681 1.43394 70.1869 1.65275C70.4057 1.87156 70.5547 2.15033 70.6151 2.45382C70.6755 2.75731 70.6445 3.07189 70.5261 3.35777C70.4077 3.64366 70.2071 3.88801 69.9498 4.05992C69.6926 4.23183 69.3901 4.32359 69.0806 4.32359C68.6754 4.33231 68.2832 4.18007 67.9899 3.90021C67.6967 3.62035 67.5263 3.23569 67.5161 2.83046V2.75905Z" fill="#020715"/>
<path d="M60.7433 11.6851C61.1687 11.6843 61.5839 11.8159 61.9313 12.0616V9.46484H52.9141C53.4334 9.98419 53.2841 10.4321 53.2841 11.1073V17.2162C53.3685 17.7906 53.2366 18.3758 52.9141 18.8586H61.9313V16.2294C61.5991 16.5038 61.1725 16.6367 60.7433 16.5994H55.6731V15.301H60.4446V13.1912H55.6731V11.8474H60.7433V11.6851Z" fill="#020715"/>
<path d="M43.9691 12.296C43.9691 11.9259 44.2677 11.6468 45.9816 11.6468C46.9386 11.6559 47.8911 11.7801 48.8185 12.0168C48.9821 12.0482 49.1356 12.1191 49.2657 12.2231C49.3957 12.3272 49.4985 12.4614 49.5651 12.6141L50.6363 10.1342C50.3126 10.1853 49.9816 10.1609 49.669 10.0627C48.3243 9.61152 46.9128 9.392 45.4947 9.41356C41.7684 9.41356 41.3918 11.7182 41.3918 12.3154C41.3918 14.3279 43.3394 14.9122 45.4947 15.1524C47.65 15.3926 48.6238 15.2238 48.4745 16.0418C48.3966 16.4183 47.5786 16.7883 45.9426 16.7883C44.942 16.7484 43.9569 16.5285 43.0343 16.1391C42.7356 15.9119 42.437 15.8405 42.2877 15.49L40.8984 17.8855C41.197 17.8724 41.4961 17.8986 41.7878 17.9634C43.172 18.5876 44.6709 18.917 46.1893 18.9307C49.3898 18.9307 50.7336 17.3661 50.7336 15.8016C50.7336 13.6398 48.7861 13.2697 46.7087 13.0425C45.8128 12.9711 43.9496 13.1204 43.9496 12.296" fill="#020715"/>
<path d="M32.7206 12.2956C32.7206 11.9255 33.0193 11.6464 34.7331 11.6464C35.6881 11.6555 36.6384 11.7798 37.5636 12.0164C37.7235 12.0483 37.8736 12.1172 38.0021 12.2175C38.1307 12.3179 38.2339 12.4468 38.3037 12.5942L39.3424 10.1338C39.0187 10.1849 38.6877 10.1605 38.3751 10.0624C37.0565 9.61434 35.6712 9.39479 34.2787 9.41318C30.5524 9.41318 30.1758 11.7178 30.1758 12.315C30.1758 14.3275 32.1234 14.9118 34.2787 15.152C36.434 15.3922 37.4078 15.2234 37.2585 16.0414C37.1806 16.4179 36.3626 16.788 34.7266 16.788C33.7261 16.748 32.7409 16.5281 31.8183 16.1388C31.5196 15.9115 31.221 15.8401 31.0717 15.4896L29.7344 17.9435C30.033 17.9304 30.332 17.9566 30.6238 18.0214C32.0223 18.63 33.5326 18.9396 35.0577 18.9303C38.2582 18.9303 39.602 17.3657 39.602 15.8012C39.602 13.6394 37.6545 13.2694 35.5771 13.0421C34.5319 12.9707 32.7401 13.12 32.7401 12.2956" fill="#020715"/>
<path d="M25.5671 15.2045L29.7349 9.46571H26.2293C26.2783 9.49165 26.3218 9.52703 26.3572 9.5698C26.3926 9.61258 26.4192 9.66191 26.4354 9.71498C26.4517 9.76805 26.4574 9.82381 26.4521 9.87907C26.4468 9.93432 26.4306 9.98799 26.4045 10.037C26.3653 10.1119 26.3042 10.173 26.2293 10.2123L24.3661 12.6727L22.4185 10.0759C22.3394 9.98293 22.3005 9.86232 22.3102 9.74061C22.3199 9.6189 22.3776 9.50602 22.4705 9.42676H18.9648L23.1391 15.1656V17.6974C23.1628 18.1009 23.0458 18.5001 22.808 18.827H26.015C25.8768 18.6637 25.7723 18.4747 25.7077 18.2707C25.643 18.0668 25.6195 17.8521 25.6385 17.639V15.2045H25.5671Z" fill="#020715"/>
<path d="M15.2758 10.6593C15.2499 10.2284 15.384 9.80305 15.6523 9.46484H12.4453C12.7224 9.79834 12.8576 10.2272 12.8218 10.6593V17.6641C12.8453 18.0947 12.7115 18.5192 12.4453 18.8586H20.7225V16.0216C20.389 16.2983 19.9594 16.4314 19.528 16.3917H15.2758V10.6593Z" fill="#020715"/>
<path d="M10.387 10.6595C10.3808 10.2322 10.5104 9.81394 10.757 9.46497H7.53058C7.68903 9.63767 7.80499 9.84497 7.86923 10.0704C7.93347 10.2958 7.94422 10.5331 7.90062 10.7633V14.8662C7.90599 15.0439 7.87604 15.2209 7.81253 15.3869C7.74901 15.553 7.65318 15.7048 7.53058 15.8335C7.16054 16.3529 6.33608 16.4827 5.36879 16.4827C4.59373 16.5319 3.82672 16.3015 3.20699 15.8335C3.07197 15.6974 2.96877 15.5331 2.90479 15.3524C2.84081 15.1717 2.81764 14.979 2.83695 14.7883V10.5816C2.82989 10.1562 2.9596 9.73971 3.20699 9.39355H0C0.265031 9.73069 0.396744 10.1536 0.370037 10.5816V14.7558C0.362285 15.7776 0.734837 16.7656 1.41523 17.5279C2.01248 18.1771 3.2784 18.8717 5.31036 18.8717C6.73239 18.9355 8.12528 18.4549 9.20549 17.5279C9.87301 16.763 10.2439 15.784 10.2507 14.7688V10.6595H10.387Z" fill="#020715"/>
</svg>
