<svg width="101" height="41" viewBox="0 0 101 41" fill="none" xmlns="http://www.w3.org/2000/svg">
<path fill-rule="evenodd" clip-rule="evenodd" d="M40.7792 30.2003C40.7007 30.2091 40.7007 30.3031 40.6685 30.3504L37.9088 38.5115C37.8848 38.5666 37.8531 38.6695 37.9088 38.7007H41.9545C43.1053 38.5984 44.0987 38.2915 44.856 37.4165C46.0389 36.0605 46.4016 33.8986 45.7237 32.1563C45.3131 31.0526 44.2564 30.2244 43.0354 30.2091L40.7792 30.2003ZM47.0878 21.351C45.9971 21.0155 44.9745 21.2247 43.7994 21.1532L42.5928 24.6411L41.1655 28.9703L41.0159 29.4048C41.024 29.4437 40.9844 29.5231 41.0478 29.5305L43.7837 29.5384L44.4926 29.4662C46.3699 29.2221 48.0186 27.8035 48.5781 26.0052C49.0753 24.6173 48.9561 22.7319 47.8444 21.7231C47.617 21.5183 47.3821 21.4407 47.0878 21.351ZM47.1135 20.627C48.6902 20.7217 50.3371 21.2812 50.9445 22.8032C51.6543 24.7359 50.724 26.691 49.4304 27.9766C48.5311 28.8207 47.545 29.3726 46.3618 29.6489C45.9838 29.7517 45.5505 29.735 45.1874 29.9085C45.125 29.9564 44.9826 30.0505 45.0771 30.1454C45.4083 30.4532 45.8502 30.5155 46.2288 30.7133C47.8215 31.4465 48.9885 32.9841 48.8468 34.8771C48.7203 36.8725 47.2219 38.5999 45.4236 39.2616C44.6593 39.553 43.8278 39.5926 42.9605 39.6326H35.4945C34.9426 39.6088 34.4047 39.6326 33.8317 39.5282C33.7606 39.481 33.6816 39.4344 33.6973 39.3311C33.7133 39.1894 33.8161 39.1262 33.9185 39.0391C34.3993 38.7318 35.0857 38.8103 35.3926 38.235C35.5906 37.9436 35.7087 37.7709 35.8268 37.4478L39.1865 26.8411L40.5824 22.3069C40.6525 22.0468 40.6728 21.7211 40.4755 21.5003C40.0815 21.1136 39.4545 21.1183 38.8864 21.0717C38.784 21.056 38.6117 21.054 38.6117 20.8609C38.6117 20.5799 38.9359 20.6427 39.1098 20.627H47.1135Z" fill="#020715"/>
<mask id="mask0_10063_329" style="mask-type:luminance" maskUnits="userSpaceOnUse" x="0" y="0" width="101" height="41">
<path d="M0 0H100.224V40.2944H0V0Z" fill="white"/>
</mask>
<g mask="url(#mask0_10063_329)">
<path fill-rule="evenodd" clip-rule="evenodd" d="M63.27 0.0606886L65.9593 0.155183C69.2472 0.320547 72.5206 0.628777 75.6825 1.15659L77.843 1.56719C80.3195 2.05631 82.7169 2.74184 85.0426 3.57001L87.1403 4.40539C90.2787 5.76992 93.363 7.55969 96.0286 9.75262C96.8874 10.5092 97.392 11.7635 96.9983 12.9785C96.8406 13.3567 96.5569 13.7349 96.0907 13.7191C95.4918 13.6638 95.1762 13.1747 94.703 12.9069C91.1863 10.4699 87.3143 8.79081 83.2058 7.50501L81.3121 6.96077L79.1833 6.42463L78.1033 6.17985L75.3349 5.63606C74.1126 5.42345 72.8751 5.22613 71.6206 5.06819L69.011 4.76829L67.3551 4.62655L64.5633 4.44543L62.0632 4.35881H58.4203C53.8143 4.42136 49.446 4.83173 45.0062 5.39915L42.1664 5.80907C41.6226 5.88107 41.0867 5.97489 40.5505 6.06128L38.3106 6.43273L35.5347 6.9529L33.5238 7.35495L31.363 7.81279L28.9498 8.35658C25.3849 9.19218 21.8605 10.1151 18.4063 11.204L15.8347 12.0315L13.0674 12.9861L11.2387 13.648L8.98235 14.5394C7.94134 14.9889 6.52911 15.793 5.43388 14.9178C5.02373 14.5394 4.95308 13.806 5.15827 13.2698C5.74121 11.6139 7.56247 11.2434 8.92723 10.5486L11.1512 9.60301L13.2332 8.77438L15.8905 7.77275C18.2567 6.9133 20.6139 6.10178 23.0584 5.4077L25.4326 4.74444L28.0197 4.09828L30.1958 3.58554L33.0893 2.94635L36.3075 2.30762L39.0443 1.82728L41.4179 1.47225L42.1826 1.35413C42.1981 1.33028 42.2539 1.29878 42.2847 1.33838L42.9167 1.25941L46.5205 0.81709L49.6746 0.494236L52.2763 0.265651L56.1166 0.0690131L58.2943 0.0215411C59.1609 0.0136666 60.1313 -0.0101819 61.0544 0.00489216L63.27 0.0606886Z" fill="#020715"/>
</g>
<mask id="mask1_10063_329" style="mask-type:luminance" maskUnits="userSpaceOnUse" x="0" y="0" width="101" height="41">
<path d="M0 0H100.224V40.2944H0V0Z" fill="white"/>
</mask>
<g mask="url(#mask1_10063_329)">
<path fill-rule="evenodd" clip-rule="evenodd" d="M99.9117 20.627C100.408 20.627 100.207 20.9224 100.009 20.9671C99.7684 21.036 99.6197 21.0378 99.3887 21.1005C96.0764 21.9937 95.5475 23.221 95.5475 23.221L93.9782 25.3897L90.4138 30.4849C90.0356 31.0294 89.6493 31.6045 89.2623 32.141L84.6966 38.7412C84.4757 39.0486 84.3175 39.3804 84.0341 39.6405C83.7501 39.7818 83.9186 39.6722 83.6264 39.7897C83.5233 39.8315 82.9618 40.0819 82.8502 40.0268L82.7622 39.8821L82.7089 39.1831L82.5829 34.5617L82.4724 30.6899L82.3707 26.9117C82.3464 26.8096 82.3464 26.659 82.2286 26.6361C82.0864 26.684 82.0069 26.8174 81.9212 26.9281L81.1707 28.1343L79.6894 30.4849L76.9603 34.8532L74.3185 39.1196C74.1525 39.3561 74.0517 39.454 73.9095 39.6418C73.8377 39.7375 73.6915 39.7433 73.5848 39.7897C73.3493 39.8938 73.0755 39.9219 72.7805 40.0419C72.7177 40.0419 72.6779 39.987 72.6703 39.9316L72.0709 29.2862L71.8902 26.0201L71.7075 22.6856C71.6929 22.2356 71.5028 21.5285 71.1332 21.2994C70.7862 21.078 70.3279 21.1255 69.9736 20.9368C69.7562 20.8396 69.6699 20.627 70.2078 20.627H76.2275C76.4174 20.6506 76.6525 20.6402 76.763 20.8056C76.8021 20.8843 76.8021 20.8504 76.763 20.9368C76.464 21.3228 75.8648 21.0706 75.4776 21.3071C74.9419 21.5831 74.8 22.4721 74.7914 23.0716L74.9255 28.8601L75.0605 34.8294C75.0835 35.2398 75.0517 35.6654 75.1228 36.0605C75.1469 36.1309 75.2094 36.0675 75.2335 36.0522L75.4151 35.8081L76.5744 33.8833L78.7498 30.3742L80.399 27.7804L81.9988 25.1926C82.1176 24.9804 82.2362 24.744 82.2362 24.4753C82.2362 23.6706 82.2522 22.8824 82.1892 22.0707C82.1759 21.5458 81.8189 21.2711 81.4398 21.1838C81.2463 21.1253 81.0015 21.114 80.7844 21.0895C80.3065 21.0495 80.0964 20.6913 80.772 20.627H86.6275C87.0765 20.6956 86.9481 20.9635 86.6675 21.0029C86.2954 21.1127 85.7053 20.9557 85.4305 21.3573C85.1221 21.7197 85.1221 22.3854 85.0913 22.8824L85.1779 35.9651C85.2096 36.0605 85.2096 36.202 85.3201 36.241C85.5412 36.2169 85.6823 35.9887 85.7925 35.8387C86.5663 34.7111 87.3456 33.5753 88.143 32.4158L90.6743 28.7262L92.0859 26.675L94.5389 23.0399C94.7477 22.6246 94.688 22.0304 94.4516 21.6675C94.1125 21.1788 93.5287 21.0607 92.9532 21.045C92.8348 20.9973 92.662 20.973 92.638 20.8243C92.638 20.7367 92.732 20.6744 92.811 20.6427L93.0846 20.627H99.9117Z" fill="#020715"/>
</g>
<mask id="mask2_10063_329" style="mask-type:luminance" maskUnits="userSpaceOnUse" x="0" y="0" width="101" height="41">
<path d="M0 0H100.224V40.2944H0V0Z" fill="white"/>
</mask>
<g mask="url(#mask2_10063_329)">
<path fill-rule="evenodd" clip-rule="evenodd" d="M36.0011 20.627C36.1192 20.6589 36.2698 20.6427 36.3249 20.7766C36.3249 20.8477 36.2936 20.9113 36.2461 20.95C36.0493 21.1084 35.7811 21.0843 35.5521 21.1554C34.2348 21.4949 32.9334 21.9987 31.9406 22.9297L30.4818 24.4119L28.2105 26.7931C27.6024 27.4325 27.0192 28.0398 26.4602 28.7262C26.4275 28.8043 26.4044 28.9224 26.4509 29.0014C26.6176 29.3564 26.7436 29.735 26.8777 30.1063L28.0213 33.1652L28.7696 35.1059L29.6925 37.4876C29.8581 37.8496 30.0485 38.1803 30.2872 38.5232C30.6105 39.1379 31.4868 38.8303 31.7507 39.2803C31.7975 39.3433 31.8056 39.3091 31.775 39.3804C31.6092 39.6326 31.2859 39.6164 31.0179 39.6326H24.3937C24.2735 39.6268 24.1869 39.5748 24.1961 39.481C24.1615 39.4378 24.2677 39.3487 24.307 39.3012C24.7867 38.9842 25.1804 38.993 25.668 38.7786C26.0124 38.6281 26.412 38.5126 26.5301 38.1257C26.6329 37.7637 26.5697 37.3454 26.4509 37.0136L25.5528 34.5536L24.5588 31.9829L24.2749 31.2179C24.2357 31.1628 24.188 31.1237 24.1169 31.1158C23.8728 31.1943 23.7306 31.4222 23.5414 31.5887L22.2169 32.9134L19.9452 35.1212L18.2815 36.7931C18.0056 37.1641 17.8083 37.6451 17.9422 38.1257C18.2421 38.8989 19.0386 38.9064 19.7169 39.1437C19.8271 39.2148 19.8982 39.3172 19.867 39.4513C19.8355 39.5298 19.7407 39.6326 19.6417 39.6326H13.2252C13.0965 39.5635 13.0965 39.5338 13.1241 39.4193C13.3118 39.1817 13.6882 39.1556 13.8389 39.065C14.7143 38.6758 15.3479 38.2656 16.1655 37.6289L18.771 35.1376L20.687 33.2525C21.6803 32.2826 22.6345 31.3282 23.6519 30.4289C23.8337 30.2091 23.7306 29.9085 23.6913 29.6565L23.2028 28.2684L22.3434 25.9816C21.9409 24.8855 21.4994 23.7887 21.058 22.7164C20.5613 21.7157 19.5592 21.1712 18.4471 21.1084C18.1694 21.0938 17.9645 20.627 18.6361 20.627C18.8516 20.627 25.3082 20.627 25.3082 20.627C25.5483 20.627 25.6223 20.7232 25.6223 20.8553C25.6223 21.0063 25.4704 21.0915 25.2938 21.0915C25.0047 21.1527 24.0785 20.9091 23.968 21.6439C23.9365 21.9757 24.0546 22.2824 24.1331 22.5821L24.9777 24.8934C25.3553 25.863 25.6867 26.8489 26.0653 27.8263C26.0964 27.8668 26.136 27.8186 26.1758 27.8186L26.4361 27.5824L30.5211 23.3864C30.9389 22.9848 31.5932 22.4327 31.2935 21.7157C30.9232 21.1554 30.1733 21.1476 29.5272 21.0684C29.4095 21.0292 29.2194 21.0054 29.2115 20.8396C29.2275 20.7613 29.3067 20.6902 29.3856 20.6589L29.6536 20.627H36.0011Z" fill="#020715"/>
</g>
<mask id="mask3_10063_329" style="mask-type:luminance" maskUnits="userSpaceOnUse" x="0" y="0" width="101" height="41">
<path d="M0 0H100.224V40.2944H0V0Z" fill="white"/>
</mask>
<g mask="url(#mask3_10063_329)">
<path fill-rule="evenodd" clip-rule="evenodd" d="M11.4751 21.0224C10.3389 20.4385 9.0061 20.9904 8.15386 21.7162C6.21425 23.3483 4.92149 25.8008 3.94392 28.1582C2.95736 30.7685 2.12986 33.5212 2.37397 36.5648C2.53979 37.7959 3.01293 39.1992 4.33787 39.5853C6.30155 40.1142 7.80738 38.5766 8.88011 37.267C10.5682 34.9879 11.6798 32.4096 12.4209 29.6888C13.0045 27.3856 13.556 24.4048 12.5233 22.1255C12.2792 21.6768 11.9554 21.2584 11.4751 21.0224ZM13.0833 21.3211C14.6445 23.1278 15.1491 25.5248 15.1883 28.0093C15.1259 31.8417 13.6111 35.3114 10.9151 37.8272C9.27518 39.2853 7.20802 40.4454 4.78762 40.2951C2.62686 40.0741 1.05691 38.1892 0.464971 36.2494C-0.977412 31.4709 0.994362 26.6211 4.14866 23.387C5.8365 21.7236 7.78398 20.2567 10.3232 20.1541C11.4112 20.0997 12.3973 20.517 13.0833 21.3211Z" fill="#020715"/>
</g>
<mask id="mask4_10063_329" style="mask-type:luminance" maskUnits="userSpaceOnUse" x="0" y="0" width="101" height="41">
<path d="M0 0H100.224V40.2944H0V0Z" fill="white"/>
</mask>
<g mask="url(#mask4_10063_329)">
<path fill-rule="evenodd" clip-rule="evenodd" d="M63.9165 21.0224C62.7803 20.4385 61.4482 20.9904 60.5955 21.7162C58.6559 23.3483 57.3633 25.8008 56.3848 28.1582C55.399 30.7685 54.5717 33.5212 54.8158 36.5648C54.9809 37.7959 55.4539 39.1992 56.7795 39.5853C58.7434 40.1142 60.249 38.5766 61.3219 37.267C63.0089 34.9879 64.1212 32.4096 64.8623 29.6888C65.4459 27.3856 65.998 24.4048 64.9651 22.1255C64.721 21.6768 64.397 21.2584 63.9165 21.0224ZM65.5249 21.3211C67.0858 23.1278 67.5909 25.5248 67.631 28.0093C67.5678 31.8417 66.0536 35.3114 63.356 37.8272C61.7159 39.2853 59.6496 40.4454 57.2288 40.2951C55.068 40.0741 53.4985 38.1892 52.9068 36.2494C51.4637 31.4709 53.4351 26.6211 56.5898 23.387C58.2774 21.7236 60.2254 20.2567 62.7645 20.1541C63.8528 20.0997 64.8389 20.517 65.5249 21.3211Z" fill="#020715"/>
</g>
</svg>
