<svg width="134" height="14" viewBox="0 0 134 14" fill="none" xmlns="http://www.w3.org/2000/svg">
<path fill-rule="evenodd" clip-rule="evenodd" d="M0 13.4347H5.89744L6.95351 8.04796C7.02357 7.51485 7.07085 6.96174 7.11728 6.42776H7.32748C7.3756 6.99826 7.53852 7.53224 7.72593 8.10274L10.0204 13.4356H13.7669L16.3188 7.76444C16.5062 7.33656 16.6236 6.8739 16.7409 6.42776H16.8583L18.0317 13.4356H23.9274L21.0251 0.00087583H14.492C14.492 0.00087583 12.1748 6.4695 12.0574 7.05653H11.8945L9.45819 0.00087583H2.8567L0 13.4347ZM32.9661 11.7597L32.3287 13.4347H26.1527L32.2865 0H39.3818L45.6802 13.4347H39.5051L38.7968 11.7597H32.9661ZM35.7755 4.47186L34.2973 8.57063C37.4833 8.57759 37.4875 8.57063 37.4875 8.57063L36.6154 6.20077C36.4272 5.63114 36.1258 5.04237 36.0085 4.47186H35.7755ZM111.067 0V7.13393C111.067 8.18362 111.019 9.1107 109.309 9.1107C107.602 9.1107 107.554 8.18362 107.554 7.13393V0H101.139V8.29842C101.139 12.2189 104.371 14 109.309 14C114.25 14 117.481 12.2189 117.481 8.29842V0H111.067ZM120.514 4.41968H124.05V13.4347H130.465V4.41968H134V0H120.514V4.41968ZM47.8717 13.4391H53.7692L54.8252 8.0523C54.8961 7.51919 54.9426 6.96521 54.9899 6.43123H55.2001C55.2473 7.00087 55.4111 7.53659 55.5994 8.1071L57.893 13.4399H61.6403L64.1914 7.76879C64.3788 7.34091 64.4962 6.87912 64.6135 6.4321H64.7308L65.9043 13.4408H71.8025L68.8994 0.006091H62.3671C62.3671 0.006091 60.0499 6.47472 59.9317 7.06175H59.7688L57.3341 0.006091H50.731L47.8717 13.4391ZM74.7656 13.4391H80.663L81.7183 8.0523C81.7892 7.51919 81.8356 6.96521 81.8812 6.43123H82.0922C82.1387 7.00087 82.3033 7.53659 82.4915 8.1071L84.7852 13.4399H88.5325L91.0827 7.76879C91.271 7.34091 91.3875 6.87912 91.5048 6.4321H91.6222L92.7947 13.4408H98.6939L95.7907 0.006091H89.2568C89.2568 0.006091 86.9404 6.47472 86.823 7.06175H86.6584L84.2229 0.006091H77.6215L74.7656 13.4391Z" fill="#020715"/>
</svg>
