<svg width="147" height="40" viewBox="0 0 147 40" fill="none" xmlns="http://www.w3.org/2000/svg">
<path d="M10.1562 29.1326H13.3363V19.1822L25.9538 29.7481L28.9286 28.7223L10.1562 13.0273V29.1326Z" fill="#020715"/>
<path d="M26.7759 20.9263L14.1584 10.2578L11.1836 11.2836L29.8534 27.0811V10.9759H26.7759V20.9263Z" fill="#020715"/>
<path d="M20.0033 0C8.92457 0 0 9.02715 0 20.0033C0 31.0821 9.02715 40.0067 20.0033 40.0067C31.0821 40.0067 40.0067 30.9795 40.0067 20.0033C40.0067 9.02715 31.0821 0 20.0033 0ZM20.0033 37.0318C10.5659 37.0318 2.97486 29.3382 2.97486 20.0033C2.97486 10.5659 10.6684 2.97486 20.0033 2.97486C29.3382 2.97486 37.0318 10.6684 37.0318 20.0033C37.1344 29.4408 29.4408 37.0318 20.0033 37.0318Z" fill="#020715"/>
<path d="M66.473 12.002H63.293V28.0046H66.473V12.002Z" fill="#020715"/>
<path d="M121.355 12.002H117.457L110.789 20.0033L117.457 28.0046H121.355L114.892 20.0033L121.355 12.002Z" fill="#020715"/>
<path d="M82.886 20.6188V19.4904C82.886 15.3871 79.5008 12.002 75.3976 12.002H70.3711V28.0046H75.3976C79.5008 28.0046 82.886 24.722 82.886 20.6188ZM79.9112 20.5162C79.9112 23.0807 77.8595 25.1324 75.295 25.1324H73.5511V14.9768H75.295C77.8595 14.9768 79.9112 17.0284 79.9112 19.593V20.5162Z" fill="#020715"/>
<path d="M122.891 28.0046H131.815V25.0298H126.071V21.3368H131.2V18.5672H126.071V14.9768H131.918V12.002H122.891V28.0046Z" fill="#020715"/>
<path d="M141.257 19.5929H139.513L143.617 28.0046H147.002L144.027 21.8497C145.873 21.1316 146.899 19.4903 146.899 17.4387V17.0284C146.899 13.951 144.745 12.1045 141.257 12.1045H135.41V28.1072H138.488V14.9768H141.257C142.899 14.9768 143.822 15.6948 143.822 17.131V17.3361C143.822 18.8749 143.001 19.5929 141.257 19.5929Z" fill="#020715"/>
<path d="M49.137 17.5413L56.4203 28.0046H59.3952V12.002H56.2152V22.4652L48.9319 12.002H45.957V28.0046H49.137V17.5413Z" fill="#020715"/>
<path d="M108.942 23.3885C108.019 24.4143 106.788 25.0298 105.352 25.0298C102.685 25.0298 100.531 22.773 100.531 20.0033C100.531 17.2336 102.685 14.9768 105.352 14.9768C106.788 14.9768 108.019 15.5923 108.942 16.6181L109.045 16.7207L110.994 14.3613C109.455 12.8226 107.506 12.002 105.352 12.002C100.941 12.002 97.4531 15.5923 97.4531 19.9007C97.4531 24.2091 101.043 27.7995 105.352 27.7995C107.506 27.7995 109.455 26.9788 110.994 25.4401L109.045 23.0807L108.942 23.3885Z" fill="#020715"/>
<path d="M85.8594 28.0046H94.7839V25.0298H89.0394V21.3368H94.1685V18.5672H89.0394V14.9768H94.8865V12.002H85.8594V28.0046Z" fill="#020715"/>
<path d="M125.561 34.6723C126.381 34.4671 126.894 33.8516 126.894 33.031C126.894 32.1078 126.176 31.2871 125.15 31.2871H122.996V37.0317H123.612V31.8H125.15C125.766 31.8 126.279 32.3129 126.279 32.9284C126.279 33.5439 125.766 34.0568 125.15 34.0568H124.432L126.279 36.9291H126.997L125.561 34.6723Z" fill="#020715"/>
<path d="M103.199 31.1846C101.557 31.1846 100.121 32.5181 100.121 34.1594C100.121 35.8007 101.455 37.1343 103.199 37.1343C104.84 37.1343 106.173 35.8007 106.173 34.1594C106.276 32.5181 104.84 31.1846 103.199 31.1846ZM103.199 36.6214C101.865 36.6214 100.737 35.493 100.737 34.1594C100.737 32.8259 101.865 31.8001 103.199 31.8001C104.532 31.8001 105.66 32.9285 105.66 34.262C105.66 35.493 104.532 36.6214 103.199 36.6214Z" fill="#020715"/>
<path d="M114.071 31.2871L111.609 37.0317H112.225L113.046 35.0826H115.713L116.533 37.0317H117.149L114.687 31.2871H114.071ZM113.251 34.5697L114.379 32.0052L115.405 34.5697H113.251Z" fill="#020715"/>
<path d="M146.487 34.1594C146.281 33.9542 145.974 33.8516 145.461 33.7491C144.948 33.5439 144.743 33.5439 144.64 33.4413C144.435 33.3387 144.332 33.031 144.332 32.8258C144.332 32.2103 144.743 31.8 145.358 31.8C145.974 31.8 146.384 32.2103 146.384 32.8258H146.999C146.999 31.9026 146.384 31.2871 145.358 31.2871C144.435 31.2871 143.717 31.9026 143.717 32.8258C143.717 33.2362 143.819 33.6465 144.127 33.8516C144.332 34.0568 144.538 34.1594 145.153 34.3645C146.179 34.6723 146.384 34.98 146.384 35.5955C146.384 36.211 145.871 36.7239 145.256 36.7239C144.64 36.7239 144.127 36.3136 144.127 35.5955H143.512C143.614 36.6213 144.23 37.3394 145.256 37.3394C146.281 37.3394 146.999 36.6213 146.999 35.5955C146.999 34.8774 146.794 34.4671 146.487 34.1594Z" fill="#020715"/>
<path d="M134.488 31.2871H132.949V37.0317H134.488C136.54 37.0317 137.771 36.0058 137.771 34.1594C137.771 32.4155 136.54 31.2871 134.488 31.2871ZM134.488 36.5188H133.462V31.9026H134.488C135.514 31.9026 137.155 32.2103 137.155 34.262C137.258 36.211 135.514 36.5188 134.488 36.5188Z" fill="#020715"/>
<path d="M59.1882 36.0058L56.0081 31.2871H55.1875V37.0317H55.803V32.0052L59.1882 37.0317H59.7011V31.2871H59.1882V36.0058Z" fill="#020715"/>
<path d="M82.5715 36.211L81.2379 31.2871H80.725L79.3915 36.211L77.9553 31.2871H77.3398L78.9811 37.0317H79.6992L80.9302 32.4155L82.2637 37.0317H82.9818L84.6231 31.2871H84.0076L82.5715 36.211Z" fill="#020715"/>
<path d="M68.9368 31.1846C67.2955 31.1846 65.8594 32.5181 65.8594 34.1594C65.8594 35.8007 67.1929 37.1343 68.9368 37.1343C70.5781 37.1343 71.9117 35.8007 71.9117 34.1594C71.9117 32.5181 70.5781 31.1846 68.9368 31.1846ZM68.9368 36.6214C67.6033 36.6214 66.4749 35.493 66.4749 34.1594C66.4749 32.8259 67.6033 31.8001 68.9368 31.8001C70.2704 31.8001 71.3988 32.9285 71.3988 34.262C71.2962 35.493 70.2704 36.6214 68.9368 36.6214Z" fill="#020715"/>
<path d="M93.5579 34.0568L93.4553 33.9543L93.5579 33.8517C93.8657 33.6465 94.0708 33.2362 94.0708 32.7233C94.0708 31.6975 93.4553 31.1846 92.1218 31.1846H90.4805V36.9291H92.2243C93.7631 36.9291 94.4811 36.4162 94.4811 35.2878C94.3786 34.7749 94.1734 34.262 93.5579 34.0568ZM91.096 31.8001H92.0192C93.2502 31.8001 93.4553 32.1078 93.4553 32.7233C93.4553 33.3388 93.2502 33.6465 92.0192 33.6465H91.096V31.8001ZM92.1218 36.5188H91.096V34.3646H92.0192C93.045 34.3646 93.7631 34.4672 93.7631 35.493C93.8656 36.2111 93.3527 36.5188 92.1218 36.5188Z" fill="#020715"/>
<path d="M48.7298 34.1594C48.5246 33.9542 48.2169 33.8516 47.704 33.7491C47.1911 33.5439 46.9859 33.5439 46.8833 33.4413C46.6782 33.3387 46.5756 33.031 46.5756 32.8258C46.5756 32.2103 46.9859 31.8 47.6014 31.8C48.2169 31.8 48.6272 32.2103 48.6272 32.8258H49.1401C49.1401 31.9026 48.5246 31.2871 47.4988 31.2871C46.5756 31.2871 45.8575 31.9026 45.8575 32.8258C45.8575 33.2362 45.9601 33.6465 46.2678 33.8516C46.473 34.0568 46.6782 34.1594 47.2936 34.3645C48.3195 34.6723 48.5246 34.98 48.5246 35.5955C48.5246 36.211 48.0117 36.7239 47.3962 36.7239C46.7807 36.7239 46.2678 36.3136 46.2678 35.5955H45.6523C45.7549 36.6213 46.3704 37.3394 47.3962 37.3394C48.422 37.3394 49.1401 36.6213 49.1401 35.5955C49.3453 34.8774 49.1401 34.4671 48.7298 34.1594Z" fill="#020715"/>
</svg>
