<svg width="101" height="49" viewBox="0 0 101 49" fill="none" xmlns="http://www.w3.org/2000/svg">
<path d="M10.6649 35.3915C9.65653 36.6289 8.13173 37.2483 6.09049 37.2497C4.04926 37.2512 2.52373 36.6318 1.51392 35.3915C0.505545 34.1512 0.00135799 32.658 0.00135799 30.9121C-0.0306609 29.2932 0.5044 27.714 1.51392 26.4479C2.52229 25.1903 4.04782 24.5615 6.09049 24.5615C8.13317 24.5615 9.65797 25.1903 10.6649 26.4479C11.6433 27.7334 12.1731 29.3042 12.1731 30.9197C12.1731 32.5351 11.6433 34.106 10.6649 35.3915ZM8.17566 33.6628C8.664 33.016 8.90817 32.097 8.90817 30.9056C8.90817 29.7143 8.664 28.7996 8.17566 28.1614C7.68732 27.5189 6.98866 27.1977 6.07969 27.1977C5.17071 27.1977 4.46989 27.5189 3.97723 28.1614C3.48025 28.8025 3.23175 29.7194 3.23175 30.9121C3.23175 32.1049 3.47736 33.0239 3.96859 33.6693C4.45837 34.3175 5.15919 34.6417 6.07104 34.6417C6.9829 34.6417 7.68444 34.3175 8.17566 33.6693V33.6628Z" fill="#020715"/>
<path d="M21.5216 29.2141C21.468 28.784 21.3141 28.3725 21.0722 28.0127C20.7221 27.5359 20.1776 27.2975 19.4386 27.2975C18.3884 27.2975 17.6682 27.8183 17.2778 28.8598C17.0504 29.57 16.9466 30.3141 16.971 31.0595C16.9477 31.7708 17.0516 32.4806 17.2778 33.1554C17.6495 34.1451 18.3503 34.6406 19.3803 34.6421C20.1106 34.6421 20.627 34.4454 20.9339 34.0522C21.2606 33.605 21.4546 33.0748 21.4935 32.5223H24.6699C24.5878 33.4965 24.232 34.4275 23.6435 35.2082C22.6668 36.5695 21.2198 37.2502 19.3025 37.2502C17.3851 37.2502 15.9756 36.6826 15.0738 35.5474C14.1691 34.4109 13.7168 32.9386 13.7168 31.1308C13.7168 29.0881 14.2159 27.4992 15.2142 26.3641C16.2125 25.2289 17.5904 24.6606 19.3478 24.6592C20.8402 24.6592 22.0647 24.9941 23.0212 25.664C23.9777 26.3338 24.5402 27.5172 24.7088 29.2141H21.5216Z" fill="#020715"/>
<path d="M34.5946 25.184C35.4342 25.5628 36.148 26.1739 36.6517 26.9451C37.1512 27.6825 37.4756 28.5243 37.6003 29.4062C37.6963 30.1896 37.731 30.9792 37.704 31.768H29.0349C29.0824 32.9636 29.4973 33.8013 30.2795 34.281C30.797 34.5907 31.3923 34.7459 31.9952 34.7283C32.4831 34.7683 32.9716 34.6591 33.3961 34.4152C33.8205 34.1714 34.1609 33.8043 34.3721 33.3626H37.5506C37.4656 34.0699 37.081 34.7902 36.3967 35.5234C35.3293 36.6759 33.8362 37.2521 31.9174 37.2521C30.3914 37.2731 28.907 36.7551 27.7254 35.7892C26.5125 34.8125 25.9068 33.2236 25.9082 31.0225C25.9082 28.9611 26.4549 27.3801 27.5483 26.2795C28.6416 25.179 30.0605 24.6287 31.805 24.6287C32.7637 24.6144 33.7145 24.8036 34.5946 25.184ZM29.9403 27.8742C29.4734 28.383 29.1825 29.0284 29.1105 29.7152H34.4715C34.4153 28.8898 34.1394 28.2632 33.6439 27.8353C33.1301 27.3985 32.4726 27.1675 31.7985 27.1871C30.999 27.1914 30.3796 27.4204 29.9403 27.8742Z" fill="#020715"/>
<path d="M43.9913 29.6077C44.4163 29.5705 44.8347 29.4782 45.236 29.3333C45.6811 29.1453 45.9058 28.8493 45.9058 28.4495C45.9058 27.9612 45.7344 27.6248 45.3915 27.4404C44.9169 27.228 44.3982 27.1324 43.879 27.1617C43.1357 27.1617 42.6063 27.3432 42.2973 27.7062C42.0585 28.0257 41.9093 28.4032 41.8651 28.7996H38.8616C38.8875 27.8748 39.1934 26.9797 39.7389 26.2325C40.5658 25.1853 41.9847 24.6609 43.9957 24.6595C45.2033 24.6373 46.3988 24.9032 47.4832 25.4352C48.4916 25.9524 48.9958 26.9283 48.9958 28.3631V33.8234C48.9958 34.2016 48.9958 34.6597 49.0174 35.1977C49.0093 35.4854 49.0731 35.7707 49.2032 36.0274C49.3218 36.1865 49.4807 36.311 49.6634 36.3883V36.8464H46.2775C46.1889 36.6283 46.123 36.4017 46.0808 36.1701C46.0441 35.954 46.016 35.7185 45.9922 35.4505C45.557 35.9194 45.0537 36.32 44.4991 36.639C43.8027 37.0313 43.0144 37.2312 42.2152 37.2181C41.2377 37.2543 40.2818 36.9254 39.5336 36.2954C38.8277 35.6817 38.4741 34.8102 38.4727 33.6808C38.4727 32.2187 39.0409 31.1592 40.1775 30.5023C40.8013 30.1465 41.7182 29.8915 42.9282 29.7374L43.9913 29.6077ZM45.895 31.0598C45.7045 31.1796 45.5025 31.2802 45.2921 31.3601C45.02 31.4555 44.7402 31.5278 44.4559 31.5762L43.7472 31.708C43.2504 31.7749 42.7674 31.9208 42.3167 32.1402C42.0824 32.2693 41.8892 32.4619 41.7593 32.6957C41.6293 32.9296 41.5679 33.1954 41.582 33.4626C41.582 33.9941 41.7311 34.3766 42.0293 34.6143C42.3427 34.8537 42.7285 34.9787 43.1227 34.9687C43.7954 34.9719 44.4524 34.7657 45.0026 34.3788C45.5788 33.9855 45.8763 33.2688 45.895 32.2288V31.0598Z" fill="#020715"/>
<path d="M61.3108 25.6268C62.0887 26.2707 62.4784 27.3389 62.4798 28.8312V36.8456H59.2905V29.607C59.3153 29.1127 59.2305 28.619 59.042 28.1614C58.7366 27.5492 58.1604 27.2431 57.3134 27.2431C56.2661 27.2431 55.5458 27.6911 55.1526 28.5871C54.9307 29.1649 54.8271 29.7814 54.8479 30.4V36.8413H51.7363V24.9569H54.7506V26.6856C55.0511 26.1856 55.4331 25.7393 55.8807 25.3653C56.587 24.8636 57.4395 24.6098 58.3052 24.6436C59.5296 24.6537 60.5315 24.9814 61.3108 25.6268Z" fill="#020715"/>
<path d="M82.6735 48.1124C78.9449 48.1317 75.3129 46.9272 72.3347 44.6836C69.3566 42.44 67.1968 39.2813 66.1866 35.6921C65.539 33.4368 65.3748 31.0702 65.7047 28.7471C66.0346 26.424 66.8512 24.1967 68.1011 22.2109C72.4335 15.3763 81.5953 1.88206 81.686 1.74593L82.8723 0L84.0456 1.75241C84.1364 1.88854 93.2204 15.4195 97.6176 22.1979C99.1742 24.6514 100.066 27.4676 100.205 30.3699C100.344 33.2722 99.7255 36.1607 98.4106 38.7518C95.4114 44.6464 89.1019 48.1124 82.6735 48.1124ZM82.8593 5.09949C80.234 8.98893 73.8877 18.4079 70.5082 23.7364C69.4721 25.383 68.7951 27.2297 68.5215 29.1558C68.2478 31.082 68.3836 33.0442 68.92 34.9142C69.4649 36.8404 70.4099 38.6301 71.6933 40.1663C72.9767 41.7026 74.5697 42.9508 76.3683 43.8297C83.4233 47.2632 92.3582 44.3461 95.8738 37.4639C96.965 35.317 97.4789 32.9232 97.3653 30.5176C97.2516 28.112 96.5143 25.7774 95.2256 23.7429C91.7878 18.4381 85.4717 8.99757 82.8593 5.09949Z" fill="#020715"/>
<path d="M87.0122 34.1994C87.2084 33.8707 87.4557 33.5753 87.7447 33.3243C88.0328 33.0722 88.5708 32.6652 89.3588 32.1034L90.6164 31.2045C91.6752 30.4497 92.4358 29.7654 92.8982 29.1518C93.5988 28.2441 93.972 27.1262 93.957 25.9797C93.957 24.4268 93.4571 23.1786 92.4574 22.235C91.4576 21.2915 90.1143 20.8183 88.4275 20.8154C87.6285 20.8012 86.8348 20.9482 86.0938 21.2475C85.1733 22.6715 84.2247 24.1452 83.2999 25.5908C83.2653 25.8933 83.2394 26.2109 83.2264 26.5437H86.2753C86.3128 25.6405 86.4302 24.9821 86.6275 24.5687C86.9733 23.8484 87.6215 23.4883 88.5723 23.4883C88.8742 23.4699 89.1762 23.5214 89.4551 23.6387C89.7339 23.756 89.9819 23.936 90.1799 24.1646C90.5637 24.6448 90.763 25.2465 90.7417 25.8609C90.729 26.7288 90.3769 27.5572 89.7607 28.1686C89.3372 28.6195 88.4008 29.3671 86.9517 30.4115C85.285 31.6086 84.2283 32.7437 83.7818 33.8169C83.3108 34.8051 83.0594 35.8836 83.0449 36.9782H93.7042L95.53 34.1929L87.0122 34.1994Z" fill="#020715"/>
<path d="M69.8681 36.9847H76.6357C78.5199 36.9847 79.9345 36.4085 80.8795 35.2561C81.8056 34.1484 82.308 32.7477 82.297 31.3039C82.297 29.6099 81.8065 28.3192 80.8255 27.4318C79.8869 26.5603 78.6489 26.0836 77.3682 26.1007C76.8045 26.0866 76.2427 26.1722 75.7087 26.3536C75.3112 26.5238 74.9318 26.7338 74.5764 26.9802L75.1469 23.4927H81.6703V20.8154H75.0475C74.1486 22.2005 73.2389 23.6072 72.3638 24.9685L71.7717 29.6293L74.5808 29.7633C74.8086 29.3045 75.2062 28.9526 75.6893 28.7823C76.0084 28.6811 76.342 28.6329 76.6767 28.6397C77.4834 28.6397 78.0762 28.9206 78.4551 29.4824C78.8524 30.0956 79.0522 30.8157 79.0277 31.546C79.0559 32.2813 78.8418 33.0056 78.4183 33.6074C78.2129 33.8795 77.9435 34.0968 77.6341 34.24C77.3247 34.3832 76.9847 34.4479 76.6443 34.4285H71.7609L69.7168 36.9804L69.8681 36.9847Z" fill="#020715"/>
</svg>
